<?xml version="1.0" encoding="UTF-8" standalone="no"?>
<svg viewBox="0 0 58 45" version="1.1" xmlns="http://www.w3.org/2000/svg" xmlns:xlink="http://www.w3.org/1999/xlink" xmlns:sketch="http://www.bohemiancoding.com/sketch/ns">
    <!-- Generator: Sketch 3.4 (15575) - http://www.bohemiancoding.com/sketch -->
    <title>bo-logo-min</title>
    <desc>Created with Sketch.</desc>
    <defs></defs>
    <g id="Landing" stroke="none" stroke-width="1" fill="none" fill-rule="evenodd" sketch:type="MSPage">
        <g id="Desktop" sketch:type="MSArtboardGroup" transform="translate(-181.000000, -40.000000)">
            <g id="Hero" sketch:type="MSLayerGroup">
                <g id="Menu" transform="translate(181.000000, 40.000000)" sketch:type="MSShapeGroup">
                    <g id="bo-logo-min">
                        <path d="M25.7700906,22.0293784 C25.3729923,22.2935388 23.9699975,23.7445628 23.7530085,24.2758855 C25.3171013,26.9952513 26.0584086,29.7692216 25.3015204,33.0523583 C24.5910889,36.133944 22.8601806,38.2565188 21.0613739,39.6447904 C19.0881756,41.1677153 15.9774293,42.3462882 12.7104453,41.9627695 C10.5499904,41.709044 8.53676777,40.8223627 6.95580766,39.5577376 C6.72623967,39.3741975 6.43749289,39.1570657 6.24094495,38.9380755 C6.02495664,38.6975008 5.78724085,38.5128173 5.54466496,38.2486568 C4.81579375,37.455032 3.97728453,36.210419 3.4626863,34.9380749 C2.2866864,32.0311667 2.27896743,28.8495202 3.52986996,25.9554769 C6.56542772,18.9333553 15.4957082,16.8084934 21.2720733,21.5316475 C21.5648225,21.2641994 22.1676172,20.4427005 22.7735566,19.8912227 C22.9695327,19.7129716 23.1759438,19.6081937 23.3256061,19.3271659 C23.1410655,19.2348241 23.0051258,19.1026009 22.8160109,18.9629447 C18.0867103,15.4705381 11.4213767,15.2891422 6.45621854,18.2006246 C5.11511838,18.9871022 4.42941625,19.5684553 3.38735483,20.6774145 C3.07016221,21.0149051 2.86875418,21.3489651 2.581008,21.7023226 C2.51039369,20.51017 2.5728602,19.1210407 2.5728602,17.9074466 L2.5728602,2.60286643 C2.5728602,2.16517204 2.63389726,1.12125236 2.49209686,0.780759867 C2.07970356,-0.208412282 0.489309148,-0.152664141 0.179692548,0.928849801 C0.0587619644,1.35139212 0.129376277,26.5948652 0.129376277,29.6684461 C0.129376277,32.2350048 0.329068978,34.0695475 1.24405322,36.2330042 C2.7075134,39.6933914 5.40915409,42.3933167 8.95445,43.8231851 C13.1126896,45.5000606 17.8387025,45.1315511 21.4234509,43.037851 C27.7538668,39.3404627 30.0991482,31.3937796 27.1748009,24.4621415 C26.9560966,23.9438267 26.0565503,22.2443661 25.7700906,22.0293784" id="Fill-1" fill="#FFFFFF"></path>
                        <path d="M21.3013768,38.9499399 C21.7147707,38.7209437 22.98154,37.3285266 23.2508464,36.80721 C23.0218502,36.3166264 22.7075165,35.9491175 22.3370057,35.0545742 C22.0615527,34.3898848 21.8448497,33.7557855 21.67832,32.9898918 C20.6860031,28.4295509 22.5539947,24.0454599 25.8421344,21.4718969 C29.9180382,18.2821027 35.687542,18.1677475 39.9627098,21.4244396 C44.0270352,24.5206056 45.6228614,30.2082025 43.5668986,34.9959672 C41.2133264,40.4771531 35.2632844,43.3423216 29.4639053,41.533223 C28.8007883,41.3263831 28.1136567,41.043354 27.5455975,40.7310215 C27.2309778,40.5580593 26.993405,40.4202614 26.7072312,40.2351489 C26.4167691,40.0474635 26.1244487,39.7947386 25.8495675,39.6715209 C25.6097075,40.1040693 24.3400793,41.4608933 23.9492706,41.6645885 C24.0589086,41.9035907 24.6455506,42.275388 24.9022779,42.4514949 C30.3222837,46.167323 37.6111388,45.6124145 42.5821577,41.1994488 C44.0327529,39.9118097 45.3907205,37.9756339 46.1447498,36.1882627 C47.679539,32.5497674 47.6886874,28.457282 46.1087279,24.828078 C45.3419766,23.0671515 44.4025489,21.8242538 43.3759255,20.6794157 C42.4499345,19.6467886 40.7842087,18.4041768 39.4618342,17.7650744 C35.8021831,15.996143 32.0699165,15.6659424 28.1543958,17.0067567 C23.2817223,18.6754844 19.6147811,23.0701533 18.7768437,28.1622457 C18.4406395,30.2049148 18.5604265,32.3938155 19.0780266,34.307835 C19.4719801,35.7640051 20.3898232,37.8629941 21.3013768,38.9499399" id="Fill-2" fill="#FFFFFF"></path>
                        <path d="M48.7688425,41.9476296 L48.7682671,42.7916493 L49.5610818,42.8480324 L57.7354729,42.838827 L57.7354729,34.7127642 L57.7308702,33.8480324 L48.7728698,33.8537858 L48.7688425,41.9476296" id="Fill-13" fill="#DF4E6B"></path>
                    </g>
                </g>
            </g>
        </g>
    </g>
</svg>
