<?xml version="1.0" encoding="UTF-8" standalone="no"?>
<svg width="527px" height="500px" viewBox="0 0 527 500" version="1.1" xmlns="http://www.w3.org/2000/svg" xmlns:xlink="http://www.w3.org/1999/xlink" xmlns:sketch="http://www.bohemiancoding.com/sketch/ns">
    <!-- Generator: Sketch 3.3.3 (12072) - http://www.bohemiancoding.com/sketch -->
    <title>bo-logo</title>
    <desc>Created with Sketch.</desc>
    <defs></defs>
    <g id="Page-1" stroke="none" stroke-width="1" fill="none" fill-rule="evenodd" sketch:type="MSPage">
        <g id="bo-logo" sketch:type="MSLayerGroup">
            <path d="M286.055175,245.126901 C281.636554,248.066286 266.025047,264.212227 263.610552,270.124399 C281.014638,300.383523 289.263367,331.250248 280.841265,367.782605 C272.936101,402.07225 253.675812,425.690718 233.659999,441.138395 C211.703684,458.084396 177.089561,471.198697 140.736939,466.931181 C116.696968,464.107908 94.295291,454.241563 76.7035167,440.169734 C74.1490511,438.127434 70.9360869,435.711349 68.7490444,433.274586 C66.3456835,430.597646 63.7005551,428.542621 61.001347,425.603236 C52.8909983,416.772356 43.5606775,402.923208 37.8346026,388.765488 C24.7489311,356.419528 24.66304,321.016479 38.5821735,288.813671 C72.3596527,210.676608 171.729319,187.032691 236.004509,239.588514 C239.262009,236.612546 245.96947,227.471504 252.711923,221.33506 C254.892603,219.351611 257.189395,218.185719 258.854729,215.058646 C256.801295,214.031134 255.288656,212.55985 253.184324,211.005857 C200.560106,172.144896 126.393122,170.126455 71.1444524,202.523314 C56.2216651,211.274665 48.5916704,217.743539 36.9963689,230.08323 C33.46688,233.838581 31.2257579,237.555758 28.0239278,241.487662 C27.238183,228.222256 27.9332649,212.765035 27.9332649,199.261042 L27.9332649,28.9628046 C27.9332649,24.0924598 28.612441,12.4764808 27.0345893,8.68772797 C22.4457765,-2.3190603 4.74902417,-1.69873553 1.30383581,10.3355651 C-0.0417917697,15.0373087 0.743952943,295.928319 0.743952943,330.128891 C0.743952943,358.687689 2.96598809,379.101146 13.1472672,403.174519 C29.4315878,441.679191 59.4934807,471.721997 98.9429551,487.632532 C145.212821,506.291583 197.800456,502.191077 237.688929,478.893906 C308.129193,437.752058 334.225779,349.327148 301.685768,272.19692 C299.252187,266.42949 289.24269,247.519128 286.055175,245.126901" id="Fill-1" fill="#787D7A" sketch:type="MSShapeGroup"></path>
            <path d="M236.330577,433.406604 C240.930524,430.8585 255.026211,415.364696 258.022857,409.563864 C255.474754,404.105006 251.977077,400.015634 247.854303,390.061808 C244.789262,382.665628 242.377948,375.609831 240.524927,367.087523 C229.483146,316.343366 250.268798,267.56039 286.856825,238.923653 C332.210519,203.429942 396.409361,202.157481 443.980318,238.395582 C489.205175,272.847465 506.96237,336.134907 484.08511,389.409671 C457.896271,450.400321 391.688531,482.281833 327.157258,462.151499 C319.778574,459.849935 312.132674,456.700594 305.811723,453.225185 C302.310865,451.300587 299.667327,449.767272 296.482993,447.707475 C293.250942,445.619049 289.998213,442.80691 286.939535,441.435833 C284.270548,446.248917 270.143049,461.346668 265.794413,463.613239 C267.014385,466.272683 273.542111,470.409772 276.398786,472.369362 C336.708669,513.716394 417.813747,507.541776 473.12763,458.437503 C489.268798,444.109592 504.379274,422.565235 512.769564,402.676669 C529.847582,362.190139 529.949379,316.651938 512.368739,276.268795 C503.836887,256.674485 493.383619,242.844424 481.9601,230.105498 C471.656347,218.615175 453.121361,204.788294 438.406939,197.676828 C397.685003,177.993445 356.155055,174.319214 312.585988,189.23882 C258.366422,207.807208 217.563367,256.707887 208.239408,313.368988 C204.498373,336.098324 205.831276,360.45482 211.590753,381.752637 C215.974381,397.955838 226.187472,421.311861 236.330577,433.406604" id="Fill-2" fill="#787D7A" sketch:type="MSShapeGroup"></path>
            <path d="M501.463747,488.42623 L501.462157,490.759605 L503.653971,490.915482 L526.25288,490.890033 L526.25288,468.424732 L526.240155,466.034096 L501.474881,466.050002 L501.463747,488.42623" id="Fill-13" fill="#DF4E6B" sketch:type="MSShapeGroup"></path>
        </g>
    </g>
</svg>