<?xml version="1.0" encoding="UTF-8" standalone="no"?>
<svg viewBox="0 0 24 35" version="1.1" xmlns="http://www.w3.org/2000/svg" xmlns:xlink="http://www.w3.org/1999/xlink" xmlns:sketch="http://www.bohemiancoding.com/sketch/ns">
    <!-- Generator: Sketch 3.4 (15575) - http://www.bohemiancoding.com/sketch -->
    <title>decoracion</title>
    <desc>Created with Sketch.</desc>
    <defs></defs>
    <g id="Assets" stroke="none" stroke-width="1" fill="none" fill-rule="evenodd" sketch:type="MSPage">
        <g id="Iconos" sketch:type="MSArtboardGroup" transform="translate(-139.000000, -8.000000)" fill="#DF4E6B">
            <g id="decoracion" sketch:type="MSLayerGroup" transform="translate(139.000000, 8.000000)">
                <path d="M4.06816667,33.6361667 L19.53,33.6361667 L22.0161667,21.9683333 L1.582,21.9683333 L4.06816667,33.6361667 L4.06816667,33.6361667 Z M20.0025,34.8028333 L3.59566667,34.8028333 C3.32033333,34.8028333 3.08233333,34.6033333 3.02516667,34.3361667 L0.2905,21.5016667 C0.254333333,21.3383333 0.2975,21.1516667 0.408333333,21.0233333 C0.518,20.8833333 0.684833333,20.8028333 0.861,20.8028333 L22.736,20.8028333 C22.9121667,20.8028333 23.079,20.8833333 23.1898333,21.0233333 C23.3006667,21.1516667 23.3438333,21.3383333 23.3076667,21.5016667 L20.573,34.3361667 C20.5146667,34.6033333 20.2766667,34.8028333 20.0025,34.8028333 L20.0025,34.8028333 Z" id="Fill-7304" sketch:type="MSShapeGroup"></path>
                <path d="M21.5833333,25.4683333 L1.75,25.4683333 C1.428,25.4683333 1.16666667,25.2116667 1.16666667,24.8861667 C1.16666667,24.5595 1.428,24.3028333 1.75,24.3028333 L21.5833333,24.3028333 C21.9053333,24.3028333 22.1666667,24.5595 22.1666667,24.8861667 C22.1666667,25.2116667 21.9053333,25.4683333 21.5833333,25.4683333" id="Fill-7305" sketch:type="MSShapeGroup"></path>
                <path d="M11.0833333,10.3028333 L12.25,10.3028333 L12.25,18.4695 L11.0833333,18.4695 L11.0833333,10.3028333 Z" id="Fill-7306" sketch:type="MSShapeGroup"></path>
                <path d="M6.89266667,15.5983333 C6.916,16.7183333 7.315,17.7811667 8.008,18.55 C8.78266667,19.4016667 9.89216667,19.8578333 11.2128333,19.8578333 L11.249,19.8578333 C11.2536667,18.8311667 10.9456667,17.9433333 10.332,17.2328333 C9.57483333,16.3578333 8.36616667,15.7861667 6.89266667,15.5983333 L6.89266667,15.5983333 Z M11.2128333,21.0233333 L11.2128333,21.0233333 C9.55266667,21.0233333 8.14566667,20.44 7.14466667,19.3328333 C6.11333333,18.1883333 5.593,16.5433333 5.754,14.9111667 C5.78433333,14.6078333 6.06316667,14.3628333 6.36533333,14.3861667 C8.42683333,14.49 10.15,15.2378333 11.2151667,16.4733333 C12.1298333,17.5361667 12.5346667,18.9116667 12.3841667,20.4633333 C12.3573333,20.7445 12.1333333,20.9661667 11.8533333,20.9895 C11.634,21.0116667 11.4205,21.0233333 11.2128333,21.0233333 L11.2128333,21.0233333 Z" id="Fill-7307" sketch:type="MSShapeGroup"></path>
                <path d="M11.7833333,5.40166667 C10.5968333,5.40166667 9.632,6.37 9.632,7.54833333 C9.632,8.7395 10.5968333,9.70783333 11.7833333,9.70783333 C12.9686667,9.70783333 13.9335,8.7395 13.9335,7.54833333 C13.9335,6.37 12.9686667,5.40166667 11.7833333,5.40166667 L11.7833333,5.40166667 Z M11.7833333,10.8745 C9.954,10.8745 8.46533333,9.38 8.46533333,7.54833333 C8.46533333,5.72833333 9.954,4.235 11.7833333,4.235 C13.6115,4.235 15.1001667,5.72833333 15.1001667,7.54833333 C15.1001667,9.38 13.6115,10.8745 11.7833333,10.8745 L11.7833333,10.8745 Z" id="Fill-7308" sketch:type="MSShapeGroup"></path>
                <path d="M15.708,3.58283333 C15.6205,3.58283333 15.5318333,3.57 15.4478333,3.52333333 C15.1596667,3.38333333 15.043,3.03333333 15.1876667,2.74283333 C15.4046667,2.31 15.232,1.78616667 14.8026667,1.56333333 C14.371,1.34166667 13.8425,1.51783333 13.6255,1.94833333 C13.4796667,2.24 13.1285,2.35783333 12.8415,2.20616667 C12.5545,2.065 12.439,1.71616667 12.5836667,1.42333333 C13.0888333,0.42 14.3173333,0.0116666667 15.3253333,0.526166667 C16.331,1.02666667 16.7358333,2.25166667 16.2306667,3.26783333 C16.128,3.46616667 15.9215,3.58283333 15.708,3.58283333" id="Fill-7309" sketch:type="MSShapeGroup"></path>
                <path d="M17.7695,8.68 C17.4871667,8.68 17.2386667,8.48283333 17.1931667,8.19 C17.1441667,7.875 17.3611667,7.57166667 17.6796667,7.52616667 C18.1568333,7.44333333 18.4846667,7 18.4111667,6.52166667 C18.3365,6.04333333 17.8815,5.71666667 17.4113333,5.78666667 C17.0963333,5.84616667 16.7953333,5.6245 16.7463333,5.3095 C16.6973333,4.98283333 16.9155,4.69 17.2328333,4.64333333 C18.3505,4.46833333 19.39,5.2395 19.565,6.34666667 C19.7365,7.45616667 18.9711667,8.505 17.8605,8.68 L17.7695,8.68" id="Fill-7310" sketch:type="MSShapeGroup"></path>
                <path d="M15.5411667,14.0595 C14.9601667,14.0595 14.3815,13.8133333 13.9778333,13.3361667 C13.7701667,13.0911667 13.8016667,12.7166667 14.0478333,12.5066667 C14.2951667,12.3095 14.6615,12.3328333 14.8703333,12.5778333 C15.1806667,12.9511667 15.7348333,12.9966667 16.1035,12.6828333 C16.4721667,12.3783333 16.52,11.8183333 16.2085,11.4578333 C16.0008333,11.2116667 16.0323333,10.8383333 16.2785,10.6283333 C16.5246667,10.4183333 16.8921667,10.4533333 17.101,10.6983333 C17.8255,11.5616667 17.7158333,12.8578333 16.856,13.5811667 C16.4733333,13.8961667 16.0066667,14.0595 15.5411667,14.0595" id="Fill-7311" sketch:type="MSShapeGroup"></path>
                <path d="M5.9535,9.84666667 C4.8685,9.84666667 3.962,8.995 3.91416667,7.89833333 C3.86633333,6.76783333 4.7425,5.81 5.86833333,5.76333333 C6.17983333,5.76333333 6.46216667,6.00833333 6.475,6.32333333 C6.489,6.65116667 6.23933333,6.91833333 5.91733333,6.93 C5.4355,6.95333333 5.05866667,7.36283333 5.07966667,7.84116667 C5.10066667,8.33116667 5.51833333,8.72666667 5.992,8.68 C6.307,8.68 6.58583333,8.91333333 6.59983333,9.24 C6.61266667,9.555 6.36416667,9.83616667 6.04216667,9.84666667 L5.9535,9.84666667" id="Fill-7312" sketch:type="MSShapeGroup"></path>
                <path d="M7.3325,4.09616667 C7.14466667,4.09616667 6.95916667,4.00166667 6.84716667,3.83833333 C6.54383333,3.38333333 6.43533333,2.83616667 6.5415,2.31 C6.64883333,1.77333333 6.95683333,1.30783333 7.41183333,1.00333333 C7.8645,0.701166667 8.4105,0.596166667 8.94366667,0.701166667 C9.47916667,0.805 9.94,1.12 10.2421667,1.57616667 C10.4218333,1.84333333 10.3483333,2.20616667 10.08,2.38 C9.81283333,2.555 9.45,2.485 9.2715,2.21666667 C9.142,2.01833333 8.94483333,1.89116667 8.715,1.84333333 C8.48516667,1.79783333 8.253,1.84333333 8.05933333,1.97166667 C7.8645,2.10116667 7.7315,2.29833333 7.686,2.53166667 C7.6405,2.76616667 7.686,2.9995 7.81666667,3.185 C7.99633333,3.45333333 7.924,3.815 7.65683333,4.00166667 C7.5565,4.06 7.44333333,4.09616667 7.3325,4.09616667" id="Fill-7313" sketch:type="MSShapeGroup"></path>
            </g>
        </g>
    </g>
</svg>
