<?xml version="1.0" encoding="UTF-8" standalone="no"?>
<svg viewBox="0 0 39 35" version="1.1" xmlns="http://www.w3.org/2000/svg" xmlns:xlink="http://www.w3.org/1999/xlink" xmlns:sketch="http://www.bohemiancoding.com/sketch/ns">
    <!-- Generator: Sketch 3.4 (15575) - http://www.bohemiancoding.com/sketch -->
    <title>decoracion</title>
    <desc>Created with Sketch.</desc>
    <defs></defs>
    <g id="Landing" stroke="none" stroke-width="1" fill="none" fill-rule="evenodd" sketch:type="MSPage">
        <g id="Desktop" sketch:type="MSArtboardGroup" transform="translate(-455.000000, -1679.000000)" fill="#DF4E6B">
            <g id="Servicios" sketch:type="MSLayerGroup" transform="translate(0.000000, 1201.000000)">
                <path d="M481.901304,478 C479.023696,478 476.181087,479.103261 474.021739,481.006957 C471.862391,479.103261 469.019783,478 466.142174,478 C459.895435,478 455,482.863478 455,489.070652 C455,496.385652 461.163043,502.343261 470.60087,510.627609 L473.052391,512.651522 C473.333913,512.884348 473.677826,513 474.021739,513 C474.36413,513 474.709565,512.884348 474.991087,512.651522 L477.477609,510.597174 C486.880435,502.341739 493.043478,496.38413 493.043478,489.070652 C493.043478,482.863478 488.148043,478 481.901304,478 L481.901304,478 Z M475.503913,508.279565 L474.021739,509.504565 L472.574565,508.31 C464.065,500.842826 458.043478,495.08913 458.043478,489.070652 C458.043478,484.569348 461.601304,481.043478 466.142174,481.043478 C468.651522,481.043478 471.226304,482.236522 472.863696,484.156957 C473.440435,484.835652 474.603043,484.835652 475.179783,484.156957 C476.817174,482.236522 479.391957,481.043478 481.901304,481.043478 C486.442174,481.043478 490,484.569348 490,489.070652 C490,495.087609 483.976957,500.841304 475.503913,508.279565 Z M466.406957,483.129783 C462.782174,483.129783 459.942609,485.952609 459.942609,489.556087 C459.942609,490.396087 460.622826,491.077826 461.464348,491.077826 C462.30587,491.077826 462.986087,490.396087 462.986087,489.556087 C462.986087,487.628043 464.457609,486.173261 466.406957,486.173261 C467.248478,486.173261 467.928696,485.491522 467.928696,484.651522 C467.928696,483.81 467.248478,483.129783 466.406957,483.129783 Z" id="decoracion" sketch:type="MSShapeGroup"></path>
            </g>
        </g>
    </g>
</svg>
