<?xml version="1.0" encoding="UTF-8" standalone="no"?>
<svg viewBox="0 0 36 36" version="1.1" xmlns="http://www.w3.org/2000/svg" xmlns:xlink="http://www.w3.org/1999/xlink" xmlns:sketch="http://www.bohemiancoding.com/sketch/ns">
    <!-- Generator: Sketch 3.4 (15575) - http://www.bohemiancoding.com/sketch -->
    <title>entretenimiento</title>
    <desc>Created with Sketch.</desc>
    <defs></defs>
    <g id="Landing" stroke="none" stroke-width="1" fill="none" fill-rule="evenodd" sketch:type="MSPage">
        <g id="Desktop" sketch:type="MSArtboardGroup" transform="translate(-707.000000, -1675.000000)" stroke="#DF4E6B" stroke-width="2">
            <g id="Servicios" sketch:type="MSLayerGroup" transform="translate(0.000000, 1201.000000)">
                <g id="entretenimiento" transform="translate(708.000000, 475.000000)" sketch:type="MSShapeGroup">
                    <path d="M33.6538462,31.2944189 C33.6538462,32.5922868 32.4320652,33.6538462 30.9388587,33.6538462 L2.71425585,33.6538462 C1.22178094,33.6538462 0,32.5922868 0,31.2944189 L0,16.0814172 C0,14.7835493 1.22178094,13.72199 2.71425585,13.72199 L30.9388587,13.72199 C32.4320652,13.72199 33.6538462,14.7835493 33.6538462,16.0814172 L33.6538462,31.2944189 L33.6538462,31.2944189 Z" id="Shape"></path>
                    <rect id="Rectangle-path" x="12.6201923" y="0" width="11.017245" height="7.01097408"></rect>
                    <path d="M18.128449,7.01097408 L18.128449,13.72199" id="Shape"></path>
                    <ellipse id="Oval" cx="16.8269231" cy="23.6871865" rx="8.03595318" ry="8.03595318"></ellipse>
                    <ellipse id="Oval" cx="16.8269231" cy="23.6871865" rx="4.00992893" ry="4.00992893"></ellipse>
                    <path d="M28.4126254,16.9132525 L30.2555393,16.9132525" id="Shape"></path>
                    <path d="M4.24916388,11.3054975 L8.7909699,11.3054975" id="Shape"></path>
                </g>
            </g>
        </g>
    </g>
</svg>
