<?xml version="1.0" encoding="UTF-8" standalone="no"?>
<svg viewBox="0 0 150 150" version="1.1" xmlns="http://www.w3.org/2000/svg" xmlns:xlink="http://www.w3.org/1999/xlink" xmlns:sketch="http://www.bohemiancoding.com/sketch/ns">
    <!-- Generator: Sketch 3.4 (15575) - http://www.bohemiancoding.com/sketch -->
    <title>heart-lg</title>
    <desc>Created with Sketch.</desc>
    <defs></defs>
    <g id="Landing" stroke="none" stroke-width="1" fill="none" fill-rule="evenodd" sketch:type="MSPage">
        <g id="Desktop" sketch:type="MSArtboardGroup" transform="translate(-525.000000, -1251.000000)" fill="#DF4E6B">
            <g id="Servicios" sketch:type="MSLayerGroup" transform="translate(0.000000, 1201.000000)">
                <path d="M580.779,97.335 C571.457,97.335 564.154,104.639 564.154,113.963 C564.154,115.067 565.049,115.963 566.154,115.963 C567.258,115.963 568.154,115.067 568.154,113.963 C568.154,106.881 573.699,101.335 580.779,101.335 C581.883,101.335 582.779,100.439 582.779,99.335 C582.779,98.23 581.883,97.335 580.779,97.335 M600,50 L600,50 C558.579,50 525,83.579 525,125 C525,166.421 558.579,200 600,200 C641.421,200 675,166.421 675,125 C675,83.579 641.421,50 600,50 L600,50 Z M600,196 C560.85,196 529,164.15 529,125 C529,85.85 560.85,54 600,54 C639.149,54 671,85.851 671,125 C671,164.15 639.149,196 600,196 L600,196 Z M619.361,88.096 C612.186,88.096 605.104,91.084 600,96.179 C594.896,91.084 587.813,88.096 580.639,88.096 C566.262,88.096 555,99.361 555,113.741 C555,131.104 569.907,145.592 592.695,165.753 L598.721,170.767 C599.091,171.075 599.546,171.23 600,171.23 C600.454,171.23 600.909,171.075 601.28,170.767 L607.35,165.714 C630.092,145.592 645,131.104 645,113.741 C645,99.361 633.738,88.096 619.361,88.096 L619.361,88.096 Z M604.746,162.679 L600,166.628 L595.3,162.718 C574.046,143.912 559,129.391 559,113.741 C559,101.604 568.505,92.096 580.639,92.096 C587.297,92.096 594.13,95.286 598.473,100.42 C599.233,101.318 600.767,101.318 601.527,100.42 C605.87,95.286 612.703,92.096 619.361,92.096 C631.495,92.096 641,101.604 641,113.741 C641,129.391 625.955,143.912 604.746,162.679 L604.746,162.679 Z" id="heart-lg" sketch:type="MSShapeGroup"></path>
            </g>
        </g>
    </g>
</svg>
