<?xml version="1.0" encoding="UTF-8" standalone="no"?>
<svg viewBox="0 0 51 50" version="1.1" xmlns="http://www.w3.org/2000/svg" xmlns:xlink="http://www.w3.org/1999/xlink" xmlns:sketch="http://www.bohemiancoding.com/sketch/ns">
    <!-- Generator: Sketch 3.4 (15575) - http://www.bohemiancoding.com/sketch -->
    <title>instagram</title>
    <desc>Created with Sketch.</desc>
    <defs></defs>
    <g id="Assets" stroke="none" stroke-width="1" fill="none" fill-rule="evenodd" sketch:type="MSPage">
        <g id="Sociales" sketch:type="MSArtboardGroup" transform="translate(-352.000000, -19.000000)" fill="#FFFFFF">
            <path d="M396.499087,40.1524529 L392.146986,40.1524529 C392.462656,41.3814945 392.65154,42.6700476 392.65154,44 C392.65154,52.4972055 385.763732,59.3850135 377.266527,59.3850135 C368.769321,59.3850135 361.881513,52.4972055 361.881513,44 C361.881513,42.6700476 362.070398,41.3814945 362.386067,40.1524529 L358.033966,40.1524529 L358.033966,61.3074933 C358.033966,62.3683502 358.895589,63.2299731 359.959033,63.2299731 L394.57402,63.2299731 C395.637464,63.2299731 396.499087,62.3683502 396.499087,61.3074933 L396.499087,40.1524529 L396.499087,40.1524529 Z M396.499087,26.6899193 C396.499087,25.6290623 395.637464,24.7674395 394.57402,24.7674395 L388.80658,24.7674395 C387.743136,24.7674395 386.884101,25.6290623 386.884101,26.6899193 L386.884101,32.4599462 C386.884101,33.5233906 387.743136,34.382426 388.80658,34.382426 L394.57402,34.382426 C395.637464,34.382426 396.499087,33.5233906 396.499087,32.4599462 L396.499087,26.6899193 L396.499087,26.6899193 Z M377.266527,34.382426 C371.954479,34.382426 367.65154,38.6879528 367.65154,44 C367.65154,49.3094597 371.954479,53.6149865 377.266527,53.6149865 C382.575986,53.6149865 386.884101,49.3094597 386.884101,44 C386.884101,38.6879528 382.575986,34.382426 377.266527,34.382426 L377.266527,34.382426 Z M396.499087,69 L358.033966,69 C354.848808,69 352.266527,66.4177189 352.266527,63.2299731 L352.266527,24.7674395 C352.266527,21.5822811 354.848808,19 358.033966,19 L396.499087,19 C399.684246,19 402.266527,21.5822811 402.266527,24.7674395 L402.266527,63.2299731 C402.266527,66.4177189 399.684246,69 396.499087,69 L396.499087,69 Z" id="instagram" sketch:type="MSShapeGroup"></path>
        </g>
    </g>
</svg>
