<?xml version="1.0" encoding="UTF-8" standalone="no"?>
<svg viewBox="0 0 33 35" version="1.1" xmlns="http://www.w3.org/2000/svg" xmlns:xlink="http://www.w3.org/1999/xlink" xmlns:sketch="http://www.bohemiancoding.com/sketch/ns">
    <!-- Generator: Sketch 3.4 (15575) - http://www.bohemiancoding.com/sketch -->
    <title>photobooth</title>
    <desc>Created with Sketch.</desc>
    <defs></defs>
    <g id="Landing" stroke="none" stroke-width="1" fill="none" fill-rule="evenodd" sketch:type="MSPage">
        <g id="Desktop" sketch:type="MSArtboardGroup" transform="translate(-958.000000, -1678.000000)" fill="#DF4E6B">
            <g id="Servicios" sketch:type="MSLayerGroup" transform="translate(0.000000, 1201.000000)">
                <path d="M990.088458,506.1312 L989.248458,502.2196 C988.454658,498.5208 985.922058,495.5164 982.473858,494.1822 L981.037458,493.625 C982.056658,491.896 982.667058,489.7708 982.667058,487.4692 C982.667058,478.3608 977.373658,477 974.218058,477 C971.062458,477 965.769058,478.3608 965.769058,487.4692 C965.769058,489.7386 966.361258,491.8358 967.355258,493.5522 L965.725658,494.1822 C962.277458,495.5164 959.744858,498.5208 958.951058,502.2196 L958.111058,506.1312 C957.798858,507.5942 958.151658,509.0936 959.084058,510.2472 C959.985658,511.3616 961.312858,512 962.728258,512 L985.472658,512 C986.888058,512 988.215258,511.3602 989.116858,510.2458 C990.049258,509.0922 990.403458,507.5928 990.088458,506.1312 L990.088458,506.1312 Z M974.218058,479.8 C976.642858,479.8 979.867058,480.5952 979.867058,487.4692 C979.867058,491.6972 977.333058,495.1384 974.218058,495.1384 C971.103058,495.1384 968.569058,491.6972 968.569058,487.4692 C968.569058,480.5952 971.793258,479.8 974.218058,479.8 L974.218058,479.8 Z M986.938458,508.4874 C986.566058,508.948 986.045258,509.2 985.472658,509.2 L962.728258,509.2 C962.155658,509.2 961.634858,508.948 961.262458,508.4874 C960.864858,507.9946 960.712258,507.3492 960.848058,506.7192 L961.688058,502.8076 C962.284458,500.0342 964.170258,497.7858 966.735058,496.7932 L969.176658,495.8496 C970.585058,497.1544 972.326658,497.9384 974.218058,497.9384 C976.078658,497.9384 977.793658,497.1796 979.190858,495.914 L981.463058,496.7932 C984.029258,497.7858 985.915058,500.0342 986.511458,502.8076 L987.351458,506.7192 C987.487258,507.3506 987.336058,507.9946 986.938458,508.4874 L986.938458,508.4874 Z" id="photobooth" sketch:type="MSShapeGroup"></path>
            </g>
        </g>
    </g>
</svg>
