<?xml version="1.0" encoding="UTF-8" standalone="no"?>
<svg viewBox="0 0 51 50" version="1.1" xmlns="http://www.w3.org/2000/svg" xmlns:xlink="http://www.w3.org/1999/xlink" xmlns:sketch="http://www.bohemiancoding.com/sketch/ns">
    <!-- Generator: Sketch 3.4 (15575) - http://www.bohemiancoding.com/sketch -->
    <title>pinterest</title>
    <desc>Created with Sketch.</desc>
    <defs></defs>
    <g id="Assets" stroke="none" stroke-width="1" fill="none" fill-rule="evenodd" sketch:type="MSPage">
        <g id="Sociales" sketch:type="MSArtboardGroup" transform="translate(-196.000000, -19.000000)" fill="#FFFFFF">
            <path d="M246.19416,44 C246.19416,57.8065215 235.000681,69 221.19416,69 C218.733811,69 216.357198,68.6404295 214.108651,67.9754704 C215.059296,66.4731554 216.09614,64.5472367 216.625644,62.6188553 C216.933496,61.5081273 218.384092,55.7476111 218.384092,55.7476111 C219.253464,57.4050832 221.792623,58.8630677 224.491864,58.8630677 C232.530481,58.8630677 237.980683,51.5362033 237.980683,41.7292878 C237.980683,34.316225 231.700514,27.4080386 222.154656,27.4080386 C210.276516,27.4080386 204.286958,35.9244409 204.286958,43.0247266 C204.286958,47.3247956 205.912414,51.1495419 209.407144,52.5755098 C209.978516,52.8094769 210.493243,52.585361 210.658252,51.9499557 C210.771541,51.5115752 211.047376,50.4057728 211.168054,49.9452271 C211.335525,49.3172101 211.271492,49.0980199 210.808483,48.5512757 C209.803656,47.3617378 209.160862,45.8249434 209.160862,43.6478179 C209.160862,37.3307063 213.884535,31.676091 221.467532,31.676091 C228.181156,31.676091 231.870448,35.7766722 231.870448,41.2564279 C231.870448,48.4650773 228.681107,54.5482219 223.94512,54.5482219 C221.327151,54.5482219 219.371679,52.3834105 219.997233,49.7334253 C220.748391,46.5662496 222.206375,43.1454044 222.206375,40.8599153 C222.206375,38.8157817 221.107961,37.1065905 218.834786,37.1065905 C216.160173,37.1065905 214.012601,39.8747907 214.012601,43.5788592 C214.012601,45.9382327 214.810552,47.5341346 214.810552,47.5341346 C214.810552,47.5341346 212.074368,59.1265885 211.59412,61.158408 C211.145888,63.0572357 211.089244,65.1530884 211.158203,66.8967589 C202.351188,63.0301448 196.19416,54.2379076 196.19416,44 C196.19416,30.1910157 207.387638,19 221.19416,19 C235.000681,19 246.19416,30.1910157 246.19416,44" id="pinterest" sketch:type="MSShapeGroup"></path>
        </g>
    </g>
</svg>
