<?xml version="1.0" encoding="UTF-8" standalone="no"?>
<svg viewBox="0 0 35 35" version="1.1" xmlns="http://www.w3.org/2000/svg" xmlns:xlink="http://www.w3.org/1999/xlink" xmlns:sketch="http://www.bohemiancoding.com/sketch/ns">
    <!-- Generator: Sketch 3.4 (15575) - http://www.bohemiancoding.com/sketch -->
    <title>planeacion</title>
    <desc>Created with Sketch.</desc>
    <defs></defs>
    <g id="Landing" stroke="none" stroke-width="1" fill="none" fill-rule="evenodd" sketch:type="MSPage">
        <g id="Desktop" sketch:type="MSArtboardGroup" transform="translate(-207.000000, -1678.000000)" fill="#DF4E6B">
            <g id="Servicios" sketch:type="MSLayerGroup" transform="translate(0.000000, 1201.000000)">
                <path d="M224.5,477 C214.8512,477 207,484.8498 207,494.5 C207,504.1488 214.8512,512 224.5,512 C234.1502,512 242,504.1488 242,494.5 C242,484.8498 234.1502,477 224.5,477 L224.5,477 Z M224.5,509.2 C216.394,509.2 209.8,502.606 209.8,494.5 C209.8,486.394 216.394,479.8 224.5,479.8 C232.606,479.8 239.2,486.394 239.2,494.5 C239.2,502.606 232.606,509.2 224.5,509.2 Z M224.5,482.9248 C218.0992,482.9248 212.8912,488.1174 212.8912,494.5 C212.8912,500.8812 218.0992,506.0724 224.5,506.0724 C230.9008,506.0724 236.1088,500.8812 236.1088,494.5 C236.1088,488.1174 230.9008,482.9248 224.5,482.9248 Z M224.5,503.2724 C219.6434,503.2724 215.6912,499.337 215.6912,494.5 C215.6912,489.6616 219.6434,485.7248 224.5,485.7248 C229.358,485.7248 233.3088,489.6616 233.3088,494.5 C233.3088,499.337 229.358,503.2724 224.5,503.2724 Z M228.0028,493.1 L225.9,493.1 L225.9,490.6458 C225.9,489.873 225.2742,489.2458 224.5,489.2458 C223.7258,489.2458 223.1,489.873 223.1,490.6458 L223.1,494.5 C223.1,495.2728 223.7258,495.9 224.5,495.9 L228.0028,495.9 C228.777,495.9 229.4028,495.2728 229.4028,494.5 C229.4028,493.7258 228.777,493.1 228.0028,493.1 Z" id="planeacion" sketch:type="MSShapeGroup"></path>
            </g>
        </g>
    </g>
</svg>
