<?xml version="1.0" encoding="UTF-8" standalone="no"?>
<svg viewBox="0 0 30 50" version="1.1" xmlns="http://www.w3.org/2000/svg" xmlns:xlink="http://www.w3.org/1999/xlink" xmlns:sketch="http://www.bohemiancoding.com/sketch/ns">
    <!-- Generator: Sketch 3.4 (15575) - http://www.bohemiancoding.com/sketch -->
    <title>tumblr</title>
    <desc>Created with Sketch.</desc>
    <defs></defs>
    <g id="Assets" stroke="none" stroke-width="1" fill="none" fill-rule="evenodd" sketch:type="MSPage">
        <g id="Sociales" sketch:type="MSArtboardGroup" transform="translate(-284.000000, -19.000000)" fill="#FFFFFF">
            <path d="M311.192358,58.9361965 C310.263244,59.3811243 308.48615,59.765856 307.159218,59.7998799 C303.157485,59.907186 302.38017,56.9889831 302.346146,54.8716502 L302.346146,39.3070286 L312.385812,39.3070286 L312.385812,31.7380214 L302.382788,31.7380214 L302.382788,19 L295.059799,19 C294.939407,19 294.727412,19.1073061 294.698623,19.3742628 C294.272015,23.2739242 292.445194,30.1153435 284.863101,32.8477237 L284.863101,39.3070286 L289.922192,39.3070286 L289.922192,55.6437308 C289.922192,61.236735 294.046934,69.1826222 304.939814,68.9967994 C308.614394,68.9339861 312.694644,67.3950593 313.597585,66.0681276 L311.192358,58.9361965" id="tumblr" sketch:type="MSShapeGroup"></path>
        </g>
    </g>
</svg>
