<?xml version="1.0" encoding="UTF-8" standalone="no"?>
<svg viewBox="0 0 62 50" version="1.1" xmlns="http://www.w3.org/2000/svg" xmlns:xlink="http://www.w3.org/1999/xlink" xmlns:sketch="http://www.bohemiancoding.com/sketch/ns">
    <!-- Generator: Sketch 3.4 (15575) - http://www.bohemiancoding.com/sketch -->
    <title>twitter</title>
    <desc>Created with Sketch.</desc>
    <defs></defs>
    <g id="Assets" stroke="none" stroke-width="1" fill="none" fill-rule="evenodd" sketch:type="MSPage">
        <g id="Sociales" sketch:type="MSArtboardGroup" transform="translate(-96.000000, -19.000000)" fill="#FFFFFF">
            <path d="M151.263661,33.0885035 C151.263661,49.7689855 138.568386,69 115.352165,69 C108.223427,69 101.588854,66.9117516 96,63.3314417 C96.9883313,63.4462156 97.9926035,63.5067908 99.0128164,63.5067908 C104.926863,63.5067908 110.369062,61.488682 114.689026,58.1028502 C109.163935,58.0008289 104.502837,54.3503794 102.89919,49.335395 C103.667538,49.4852388 104.458203,49.5649429 105.271185,49.5649429 C106.422113,49.5649429 107.537971,49.4087228 108.596442,49.1217879 C102.822674,47.9612957 98.4740165,42.8602308 98.4740165,36.7453293 L98.4740165,36.5859211 C100.176497,37.5296181 102.121278,38.0971115 104.190397,38.164063 C100.804565,35.9004655 98.5760377,32.0364089 98.5760377,27.6590576 C98.5760377,25.3444494 99.19773,23.1764968 100.284894,21.31142 C106.511382,28.9470765 115.811261,33.9748135 126.300325,34.5008608 C126.086718,33.5762928 125.975132,32.6134668 125.975132,31.6219473 C125.975132,24.6526175 131.624562,19 138.59708,19 C142.2284,19 145.509023,20.5335076 147.810878,22.9883951 C150.686603,22.4209016 153.38698,21.3719952 155.825926,19.924568 C154.885417,22.870433 152.883249,25.3444494 150.27533,26.9066505 C152.829051,26.6037748 155.261621,25.9246955 157.525218,24.9204234 C155.832302,27.4518268 153.693043,29.6739782 151.228591,31.4529746 C151.250909,31.9949627 151.263661,32.540139 151.263661,33.0885035 Z" id="twitter" sketch:type="MSShapeGroup"></path>
        </g>
    </g>
</svg>
