<?xml version="1.0" encoding="UTF-8" standalone="no"?>
<svg width="58px" height="46px" viewBox="0 0 58 46" version="1.1" xmlns="http://www.w3.org/2000/svg" xmlns:xlink="http://www.w3.org/1999/xlink" xmlns:sketch="http://www.bohemiancoding.com/sketch/ns">
    <!-- Generator: Sketch 3.4 (15575) - http://www.bohemiancoding.com/sketch -->
    <title>bo-logo-min</title>
    <desc>Created with Sketch.</desc>
    <defs></defs>
    <g id="Assets" stroke="none" stroke-width="1" fill="none" fill-rule="evenodd" sketch:type="MSPage">
        <g id="bo-logo-min" sketch:type="MSLayerGroup">
            <path d="M25.8180838,22.1477543 C25.4188517,22.4133342 24.0083178,23.8721554 23.7901629,24.4063332 C25.3626603,27.1403115 26.1079511,29.9291879 25.3469957,33.2299667 C24.6327467,36.3281115 22.8925373,38.462092 21.0840646,39.8578236 C19.1002632,41.388932 15.9728012,42.573838 12.6882619,42.1882585 C10.5161977,41.9331696 8.49215688,41.0417236 6.90270141,39.770303 C6.67189982,39.5857767 6.38160145,39.367478 6.18399735,39.1473111 C5.96684842,38.9054437 5.72785525,38.7197677 5.48397587,38.4541878 C4.75118803,37.6562984 3.90817304,36.4049975 3.39080959,35.1258163 C2.2084904,32.2032877 2.20072995,29.0045445 3.45835426,26.09495 C6.51022375,19.0350946 15.4884915,16.8988147 21.2958962,21.6473489 C21.5902185,21.3784636 22.1962523,20.5525503 22.8054478,19.9981092 C23.002477,19.8189002 23.2099972,19.7135593 23.3604638,19.4310213 C23.1749315,19.3381833 23.0382613,19.2052497 22.8481302,19.064843 C18.0934165,15.5536697 11.3922664,15.3712991 6.40042773,18.2984265 C5.0521211,19.0891303 4.36273431,19.6736073 3.31507333,20.7885255 C2.99617625,21.1278297 2.79368595,21.4636848 2.50439355,21.8189411 C2.43339979,20.6203824 2.49620196,19.2237885 2.49620196,18.0036731 L2.49620196,2.61685305 C2.49620196,2.1768067 2.55756702,1.12727746 2.41500465,0.784955318 C2.00039533,-0.209532196 0.401454855,-0.153484489 0.0901745152,0.933841021 C-0.0314058947,1.35865389 0.0395878671,26.737774 0.0395878671,29.8278709 C0.0395878671,32.4082211 0.240353627,34.2526218 1.16025458,36.427704 C2.63157873,39.9066857 5.34773683,42.6211193 8.91208355,44.0586711 C13.0926676,45.7445574 17.844076,45.3740676 21.4480873,43.269117 C27.8125199,39.5518606 30.1704038,31.5624756 27.2303423,24.59359 C27.0104629,24.07249 26.1060828,22.3638972 25.8180838,22.1477543" id="Fill-1" fill="#787D7A" sketch:type="MSShapeGroup"></path>
            <path d="M21.3253572,39.1592392 C21.7409725,38.9290125 23.0145488,37.5291133 23.2853024,37.0049953 C23.0550756,36.5117755 22.7390528,36.1422918 22.3665511,35.2429417 C22.0896179,34.5746806 21.8717505,33.9371738 21.7043259,33.1671646 C20.7066767,28.5823184 22.584706,24.1746693 25.8905147,21.5872772 C29.9883207,18.3803424 35.7888272,18.2653728 40.0869677,21.5395648 C44.1731329,24.6523682 45.7775345,30.3705277 43.7105238,35.1840197 C41.3443046,40.694659 35.3622897,43.5752237 29.5317474,41.7564037 C28.8650671,41.5484524 28.1742432,41.2639025 27.6031315,40.9498916 C27.2868212,40.776 27.0479717,40.6374616 26.7602602,40.4513545 C26.4682372,40.2626605 26.1743461,40.0085776 25.8979878,39.8846978 C25.6568389,40.3195705 24.3803883,41.6836854 23.9874795,41.8884751 C24.0977067,42.1287617 24.687501,42.5025568 24.9456079,42.6796101 C30.3947384,46.4154053 37.7227605,45.857515 42.7204914,41.4208361 C44.1788814,40.1262778 45.5441461,38.1796978 46.3022272,36.3827221 C47.8452637,32.7246751 47.8544613,28.6101986 46.2660118,24.9614929 C45.4951403,23.1911039 44.5506645,21.9415275 43.5185245,20.7905375 C42.5875577,19.7523615 40.912881,18.5030725 39.5834006,17.8605359 C35.9040842,16.082099 32.1517621,15.7501241 28.2152012,17.0981433 C23.3163442,18.775838 19.6296985,23.1941219 18.7872583,28.3135769 C18.4492475,30.3672223 18.5696783,32.5678852 19.0900597,34.4921898 C19.4861301,35.9561847 20.4089053,38.0664527 21.3253572,39.1592392" id="Fill-2" fill="#787D7A" sketch:type="MSShapeGroup"></path>
            <path d="M48.9404206,42.1730373 L48.9398422,43.0215923 L49.7369171,43.0782784 L57.9552336,43.0690235 L57.9552336,34.8992949 L57.9506062,34.0299164 L48.9444696,34.0357007 L48.9404206,42.1730373" id="Fill-13" fill="#DF4E6B" sketch:type="MSShapeGroup"></path>
        </g>
    </g>
</svg>