<svg viewBox="0 0 58 45" xmlns="http://www.w3.org/2000/svg"><title>bo-logo-min</title><g fill="none" fill-rule="evenodd"><path d="M25.77 22.03c-.397.264-1.8 1.715-2.017 2.246 1.564 2.72 2.305 5.493 1.55 8.776-.712 3.082-2.443 5.205-4.242 6.593-1.972 1.523-5.083 2.7-8.35 2.318-2.16-.254-4.173-1.14-5.754-2.405-.23-.184-.52-.4-.715-.62-.215-.24-.453-.425-.695-.69-.73-.793-1.568-2.038-2.082-3.31-1.176-2.907-1.184-6.088.067-8.983 3.035-7.022 11.966-9.147 17.742-4.423.293-.268.896-1.09 1.502-1.64.196-.18.402-.284.552-.565-.185-.092-.32-.224-.51-.364-4.73-3.492-11.395-3.674-16.36-.762-1.34.787-2.027 1.368-3.07 2.477-.316.338-.517.672-.805 1.025-.07-1.192-.007-2.58-.007-3.795V2.603c0-.438.06-1.482-.08-1.822C2.08-.207.488-.152.18.93.06 1.35.13 26.594.13 29.667c0 2.567.2 4.402 1.114 6.565 1.464 3.46 4.165 6.16 7.71 7.59 4.16 1.677 8.885 1.31 12.47-.785 6.33-3.698 8.675-11.644 5.75-18.576-.218-.518-1.117-2.218-1.404-2.433" fill="#FFF"/><path d="M21.3 38.95c.415-.23 1.682-1.62 1.95-2.143-.228-.49-.542-.858-.913-1.752-.275-.665-.492-1.3-.66-2.065-.99-4.56.877-8.945 4.165-11.518 4.076-3.19 9.846-3.304 14.12-.048 4.065 3.097 5.66 8.784 3.605 13.572-2.354 5.48-8.304 8.346-14.103 6.537-.663-.207-1.35-.49-1.918-.802-.315-.172-.553-.31-.84-.495-.29-.188-.582-.44-.856-.563-.24.432-1.51 1.79-1.9 1.993.11.24.696.61.952.786 5.42 3.717 12.71 3.162 17.68-1.25 1.45-1.288 2.81-3.224 3.563-5.012 1.535-3.638 1.544-7.73-.036-11.36-.768-1.76-1.707-3.004-2.734-4.15-.926-1.03-2.592-2.274-3.914-2.913-3.66-1.77-7.392-2.1-11.308-.758-4.872 1.668-8.54 6.063-9.377 11.155-.336 2.043-.217 4.232.3 6.146.395 1.456 1.313 3.555 2.224 4.642" fill="#FFF"/><path d="M48.77 41.948l-.002.844.793.056 8.175-.01v-8.125l-.004-.865-8.957.006-.004 8.094" fill="#DF4E6B"/></g></svg>