<svg viewBox="0 0 24 35" xmlns="http://www.w3.org/2000/svg"><title>decoracion</title><g fill="#DF4E6B" fill-rule="evenodd"><path d="M4.068 33.636H19.53l2.486-11.668H1.582l2.486 11.668zm15.935 1.167H3.596c-.276 0-.514-.2-.57-.467L.29 21.502c-.036-.164.008-.35.118-.48.11-.14.277-.22.453-.22h21.876c.176 0 .343.08.454.22.11.13.154.316.118.48l-2.735 12.834c-.058.267-.296.467-.57.467z"/><path d="M21.583 25.468H1.75c-.322 0-.583-.256-.583-.582 0-.326.26-.583.583-.583h19.833c.322 0 .584.256.584.583 0 .326-.262.582-.584.582M11.083 10.303h1.167v8.166h-1.167v-8.167z"/><path d="M6.893 15.598c.023 1.12.422 2.183 1.115 2.952.775.852 1.884 1.308 3.205 1.308h.036c.004-1.027-.304-1.915-.918-2.625-.757-.875-1.966-1.447-3.44-1.635zm4.32 5.425c-1.66 0-3.067-.583-4.068-1.69-1.032-1.145-1.552-2.79-1.39-4.422.03-.302.308-.547.61-.524 2.062.104 3.785.852 4.85 2.087.915 1.063 1.32 2.44 1.17 3.99-.028.28-.252.503-.532.526-.22.022-.432.033-.64.033zM11.783 5.402c-1.186 0-2.15.968-2.15 2.146 0 1.19.964 2.16 2.15 2.16s2.15-.97 2.15-2.16c0-1.178-.964-2.146-2.15-2.146zm0 5.472c-1.83 0-3.318-1.494-3.318-3.326 0-1.82 1.49-3.313 3.318-3.313 1.829 0 3.317 1.493 3.317 3.313 0 1.832-1.49 3.326-3.317 3.326zM15.708 3.583c-.088 0-.176-.013-.26-.06-.288-.14-.405-.49-.26-.78.217-.433.044-.957-.385-1.18-.432-.22-.96-.045-1.178.385-.145.292-.496.41-.784.258-.285-.14-.4-.49-.256-.783.505-1.003 1.733-1.41 2.74-.897 1.007.5 1.412 1.726.907 2.742-.102.198-.31.315-.522.315M17.77 8.68c-.283 0-.53-.197-.577-.49-.05-.315.168-.618.487-.664.477-.083.805-.526.73-1.004-.073-.48-.53-.805-1-.735-.314.06-.615-.162-.664-.478-.05-.327.17-.62.487-.667 1.117-.175 2.157.596 2.332 1.704.17 1.11-.594 2.158-1.705 2.333h-.09M15.54 14.06c-.58 0-1.158-.247-1.562-.724-.208-.245-.176-.62.07-.83.247-.197.614-.173.822.072.31.373.865.42 1.234.105.368-.305.416-.865.105-1.225-.21-.246-.178-.62.07-.83.245-.21.612-.175.82.07.726.864.616 2.16-.244 2.883-.383.316-.85.48-1.315.48M5.954 9.847c-1.085 0-1.992-.852-2.04-1.95-.048-1.13.828-2.087 1.954-2.134.312 0 .594.245.607.56.014.328-.236.595-.558.607-.48.023-.858.433-.837.91.02.49.438.887.912.84.315 0 .594.233.608.56.013.315-.236.596-.558.607h-.088M7.332 4.096c-.187 0-.373-.094-.485-.258-.303-.455-.412-1.002-.306-1.528.11-.537.417-1.002.872-1.307C7.864.7 8.412.596 8.944.7c.535.105.996.42 1.298.876.18.267.106.63-.162.804-.267.175-.63.105-.81-.163-.128-.2-.325-.326-.555-.374-.23-.045-.462 0-.656.13-.196.128-.33.325-.374.56-.045.233 0 .466.13.652.18.268.108.63-.16.817-.1.058-.213.094-.324.094"/></g></svg>