<svg viewBox="0 0 39 35" xmlns="http://www.w3.org/2000/svg"><title>decoracion</title><path d="M26.9 0c-2.876 0-5.72 1.103-7.878 3.007C16.862 1.103 14.02 0 11.142 0 4.895 0 0 4.863 0 11.07c0 7.316 6.163 13.273 15.6 21.558l2.452 2.024c.282.232.626.348.97.348.342 0 .688-.116.97-.348l2.486-2.055c9.402-8.255 15.565-14.213 15.565-21.526C38.043 4.864 33.148 0 26.9 0zm-6.396 30.28l-1.482 1.225-1.447-1.195C9.065 22.843 3.043 17.09 3.043 11.07c0-4.5 3.558-8.027 8.1-8.027 2.51 0 5.083 1.194 6.72 3.114.577.68 1.74.68 2.317 0 1.637-1.92 4.212-3.114 6.72-3.114 4.542 0 8.1 3.526 8.1 8.028 0 6.018-6.023 11.77-14.496 19.21zM11.407 5.13c-3.625 0-6.464 2.823-6.464 6.426 0 .84.68 1.522 1.52 1.522.843 0 1.523-.682 1.523-1.522 0-1.928 1.472-3.383 3.42-3.383.842 0 1.523-.68 1.523-1.52 0-.843-.682-1.523-1.523-1.523z" fill="#DF4E6B" fill-rule="evenodd"/></svg>