<svg viewBox="0 0 33 35" xmlns="http://www.w3.org/2000/svg"><title>photobooth</title><path d="M32.088 29.13l-.84-3.91c-.793-3.7-3.326-6.704-6.774-8.038l-1.437-.557c1.02-1.73 1.63-3.854 1.63-6.156 0-9.11-5.293-10.47-8.45-10.47C13.063 0 7.77 1.36 7.77 10.47c0 2.27.59 4.366 1.585 6.082l-1.63.63c-3.448 1.334-5.98 4.34-6.774 8.038l-.84 3.91c-.31 1.464.042 2.964.974 4.117C1.986 34.362 3.314 35 4.728 35h22.745c1.415 0 2.742-.64 3.644-1.754.932-1.154 1.286-2.653.97-4.115zM16.218 2.8c2.425 0 5.65.795 5.65 7.67 0 4.227-2.535 7.668-5.65 7.668s-5.65-3.44-5.65-7.67c0-6.873 3.225-7.668 5.65-7.668zm12.72 28.687c-.372.46-.893.713-1.465.713H4.728c-.572 0-1.093-.252-1.466-.713-.397-.492-.55-1.138-.414-1.768l.84-3.912c.596-2.774 2.482-5.022 5.047-6.015l2.442-.943c1.408 1.304 3.15 2.088 5.04 2.088 1.862 0 3.577-.758 4.974-2.024l2.273.88c2.566.992 4.452 3.24 5.048 6.014l.84 3.91c.137.633-.014 1.277-.412 1.77z" fill="#DF4E6B" fill-rule="evenodd"/></svg>