<svg viewBox="0 0 150 150" xmlns="http://www.w3.org/2000/svg"><title>heart-lg</title><path d="M55.78 47.335c-9.323 0-16.626 7.304-16.626 16.628 0 1.104.895 2 2 2 1.104 0 2-.896 2-2 0-7.082 5.545-12.628 12.625-12.628 1.103 0 2-.896 2-2 0-1.105-.897-2-2-2M75 0C33.58 0 0 33.58 0 75s33.58 75 75 75 75-33.58 75-75S116.42 0 75 0zm0 146c-39.15 0-71-31.85-71-71S35.85 4 75 4s71 31.85 71 71-31.85 71-71 71zM94.36 38.096c-7.174 0-14.256 2.988-19.36 8.083-5.104-5.096-12.187-8.084-19.36-8.084C41.26 38.096 30 49.36 30 63.74c0 17.364 14.907 31.852 37.695 52.013l6.026 5.014c.37.308.826.463 1.28.463.454 0 .91-.155 1.28-.463l6.07-5.053C105.092 95.592 120 81.104 120 63.74c0-14.38-11.262-25.644-25.64-25.644zM79.747 112.68L75 116.627l-4.7-3.91C49.046 93.912 34 79.39 34 63.74c0-12.136 9.505-21.644 21.64-21.644 6.657 0 13.49 3.19 17.833 8.324.76.898 2.294.898 3.054 0 4.343-5.134 11.176-8.324 17.834-8.324 12.135 0 21.64 9.508 21.64 21.645 0 15.65-15.045 30.172-36.254 48.94z" fill="#DF4E6B" fill-rule="evenodd"/></svg>