<svg viewBox="0 0 51 50" xmlns="http://www.w3.org/2000/svg"><title>instagram</title><path d="M44.5 21.152h-4.353c.316 1.23.505 2.518.505 3.848 0 8.497-6.888 15.385-15.385 15.385-8.498 0-15.385-6.888-15.385-15.385 0-1.33.188-2.62.504-3.848H6.034v21.155c0 1.06.862 1.923 1.925 1.923h34.614c1.063 0 1.925-.862 1.925-1.923V21.152zm0-13.462c0-1.06-.863-1.923-1.926-1.923h-5.767c-1.064 0-1.923.862-1.923 1.923v5.77c0 1.063.86 1.922 1.923 1.922h5.767c1.063 0 1.925-.86 1.925-1.922V7.69zm-19.233 7.692c-5.313 0-9.615 4.306-9.615 9.618 0 5.31 4.302 9.615 9.615 9.615 5.31 0 9.617-4.306 9.617-9.615 0-5.312-4.308-9.618-9.617-9.618zM44.5 50H6.033C2.85 50 .267 47.418.267 44.23V5.767C.267 2.582 2.85 0 6.034 0H44.5c3.184 0 5.767 2.582 5.767 5.767V44.23c0 3.188-2.583 5.77-5.768 5.77z" fill="#FFF" fill-rule="evenodd"/></svg>