<svg viewBox="0 0 51 50" xmlns="http://www.w3.org/2000/svg"><title>pinterest</title><path d="M50.194 25c0 13.807-11.193 25-25 25-2.46 0-4.837-.36-7.085-1.025.95-1.502 1.986-3.428 2.516-5.356.307-1.112 1.758-6.872 1.758-6.872.87 1.657 3.41 3.115 6.108 3.115 8.038 0 13.49-7.327 13.49-17.134 0-7.414-6.28-14.322-15.827-14.322-11.878 0-17.868 8.516-17.868 15.617 0 4.3 1.625 8.125 5.12 9.55.572.234 1.086.01 1.25-.625.115-.438.39-1.544.51-2.005.17-.628.104-.847-.36-1.394-1.003-1.188-1.646-2.725-1.646-4.902 0-6.317 4.725-11.972 12.308-11.972 6.713 0 10.402 4.1 10.402 9.58 0 7.21-3.19 13.292-7.925 13.292-2.618 0-4.573-2.165-3.948-4.815.75-3.167 2.21-6.588 2.21-8.873 0-2.044-1.1-3.753-3.372-3.753-2.675 0-4.822 2.768-4.822 6.472 0 2.358.798 3.954.798 3.954l-3.216 13.624c-.448 1.9-.505 3.995-.436 5.74C6.35 44.03.194 35.237.194 25c0-13.81 11.194-25 25-25 13.807 0 25 11.19 25 25" fill="#FFF" fill-rule="evenodd"/></svg>