<svg viewBox="0 0 35 35" xmlns="http://www.w3.org/2000/svg"><title>planeacion</title><path d="M17.5 0C7.85 0 0 7.85 0 17.5S7.85 35 17.5 35 35 27.15 35 17.5 27.15 0 17.5 0zm0 32.2c-8.106 0-14.7-6.594-14.7-14.7 0-8.106 6.594-14.7 14.7-14.7 8.106 0 14.7 6.594 14.7 14.7 0 8.106-6.594 14.7-14.7 14.7zm0-26.275c-6.4 0-11.61 5.192-11.61 11.575 0 6.38 5.21 11.572 11.61 11.572 6.4 0 11.61-5.19 11.61-11.572 0-6.383-5.21-11.575-11.61-11.575zm0 20.347c-4.857 0-8.81-3.935-8.81-8.772 0-4.838 3.953-8.775 8.81-8.775 4.858 0 8.81 3.937 8.81 8.775 0 4.837-3.952 8.772-8.81 8.772zM21.003 16.1H18.9v-2.454c0-.773-.626-1.4-1.4-1.4-.774 0-1.4.627-1.4 1.4V17.5c0 .773.626 1.4 1.4 1.4h3.503c.774 0 1.4-.627 1.4-1.4 0-.774-.626-1.4-1.4-1.4z" fill="#DF4E6B" fill-rule="evenodd"/></svg>