<svg viewBox="0 0 62 50" xmlns="http://www.w3.org/2000/svg"><title>twitter</title><path d="M55.264 14.09C55.264 30.77 42.568 50 19.352 50 12.222 50 5.59 47.912 0 44.33c.988.116 1.993.177 3.013.177 5.914 0 11.356-2.018 15.676-5.404C13.163 39 8.502 35.35 6.9 30.335c.768.15 1.558.23 2.37.23 1.152 0 2.268-.156 3.326-.443-5.773-1.16-10.122-6.262-10.122-12.377v-.16c1.702.945 3.647 1.512 5.716 1.58-3.385-2.265-5.614-6.13-5.614-10.506 0-2.316.622-4.484 1.71-6.35C10.51 9.948 19.81 14.976 30.3 15.5c-.213-.924-.325-1.887-.325-2.878C29.975 5.652 35.625 0 42.597 0c3.63 0 6.912 1.534 9.214 3.988 2.877-.567 5.577-1.616 8.016-3.063-.94 2.945-2.943 5.42-5.55 6.982 2.553-.303 4.986-.982 7.25-1.987-1.694 2.532-3.833 4.754-6.297 6.533.02.542.034 1.087.034 1.636z" fill="#FFF" fill-rule="evenodd"/></svg>